<?xml version="1.0" encoding="UTF-8"?>
<svg version="1.1" xmlns="http://www.w3.org/2000/svg" width="1254" height="1254">
<path d="M0 0 C413.82 0 827.64 0 1254 0 C1254 413.82 1254 827.64 1254 1254 C840.18 1254 426.36 1254 0 1254 C0 840.18 0 426.36 0 0 Z " fill="#000000" transform="translate(0,0)"/>
<path d="M0 0 C1.11064112 3.39335062 0.88753822 5.89194137 0.29077148 9.390625 C0.10962799 10.47672562 -0.0715155 11.56282623 -0.25814819 12.68183899 C-0.46299835 13.85933212 -0.66784851 15.03682526 -0.87890625 16.25 C-1.18956528 18.09279793 -1.18956528 18.09279793 -1.50650024 19.9728241 C-2.06795534 23.29478632 -2.63645489 26.61539478 -3.20812607 29.9356041 C-3.80067184 33.3874637 -4.38402955 36.84087361 -4.96801758 40.29418945 C-5.89101887 45.74710644 -6.81840881 51.19925641 -7.74902344 56.65087891 C-9.13885367 64.80114201 -10.49666179 72.95647131 -11.8444519 81.11376953 C-14.30354791 95.97903877 -16.84139029 110.83078142 -19.38867188 125.68115234 C-20.82823255 134.08182449 -22.25268046 142.48451716 -23.63671875 150.89453125 C-23.76857574 151.69394135 -23.90043274 152.49335144 -24.0362854 153.31698608 C-24.65225404 157.05307888 -25.26500275 160.78963598 -25.87109375 164.52734375 C-27.66282097 175.42354532 -29.83014336 186.15071679 -32 197 C34.33 197 100.66 197 169 197 C168.36256706 202.7368965 167.68835758 208.38007908 166.7265625 214.05859375 C166.53400375 215.20321327 166.53400375 215.20321327 166.33755493 216.37095642 C164.71436561 225.86661985 162.85888865 235.31830899 161.01565552 244.77319336 C157.43362892 263.16433113 153.93630039 281.56955556 150.5625 300 C150.38440796 300.97015045 150.20631592 301.9403009 150.02282715 302.93984985 C148.06416936 313.60960627 146.12457065 324.28259809 144.21848202 334.96187592 C143.22749082 340.51315554 142.22993296 346.06323292 141.22855473 351.61264801 C140.61737676 355.00249779 140.01018209 358.39296241 139.41213989 361.78515625 C138.7448117 365.56159455 138.0651168 369.33561813 137.3828125 373.109375 C137.08800743 374.8058316 137.08800743 374.8058316 136.7872467 376.53656006 C136.59593674 377.58120422 136.40462677 378.62584839 136.20751953 379.70214844 C136.04591339 380.6091449 135.88430725 381.51614136 135.71780396 382.45062256 C134.45251372 386.94447129 132.2023068 390.13348242 128.625 393.0625 C124.86178481 396.23771281 121.23061678 399.52385413 117.625 402.875 C113.81782379 406.40534011 109.99723144 409.91580658 106.125 413.375 C101.27077574 417.72570667 96.50982505 422.1722375 91.74975586 426.62524414 C83.95406581 433.91792306 76.1488002 441.20040516 68.1875 448.3125 C63.5854808 452.43609146 59.07028466 456.64904624 54.5625 460.875 C53.86342529 461.53024658 53.16435059 462.18549316 52.4440918 462.8605957 C48.92891334 466.00530394 48.92891334 466.00530394 45.89393139 469.57587147 C42.89930913 471.82765684 39.64608242 471.40164381 36.04646301 471.36076355 C35.22718927 471.36332682 34.40791552 471.3658901 33.5638153 471.36853105 C30.80902845 471.37348615 28.05478547 471.35694774 25.30004883 471.34057617 C23.32918816 471.33973027 21.35832655 471.34020432 19.38746643 471.34190369 C14.02822853 471.34276651 8.66919094 471.32509426 3.3099997 471.30418181 C-2.28740795 471.28546285 -7.8848199 471.28366835 -13.48225403 471.28010559 C-24.08573915 471.27077105 -34.68913179 471.24613821 -45.29257613 471.21605712 C-57.36253606 471.18255693 -69.43250034 471.16603813 -81.50249517 471.15097082 C-106.33504811 471.11958989 -131.16751888 471.06680203 -156 471 C-155.85281222 469.2601989 -155.70245124 467.52066609 -155.55078125 465.78125 C-155.46739502 464.81251953 -155.38400879 463.84378906 -155.2980957 462.84570312 C-154.77451918 457.84749837 -153.65954007 452.99986838 -152.58154297 448.09667969 C-150.21274447 437.27003966 -148.1969058 426.43465511 -146.43237305 415.49267578 C-145.43294368 409.36987663 -144.21230182 403.37447257 -142.71875 397.3515625 C-141.56403233 391.96706378 -140.83050934 386.51865196 -140.08959961 381.06347656 C-139.58345818 377.43594981 -139.00957541 374.03347652 -138 370.50390625 C-136.52994564 365.3529736 -135.9351356 360.12380405 -135.23242188 354.82226562 C-134.60973509 350.38089193 -133.80521156 346.09203963 -132.64819336 341.75732422 C-130.62397557 333.7692508 -129.20313969 325.68885317 -127.75 317.58203125 C-127.44792864 315.91348765 -127.14551278 314.24500639 -126.84277344 312.57658386 C-126.05129961 308.20924362 -125.26464841 303.84104834 -124.47900391 299.47265625 C-123.68701098 295.07431022 -122.89008007 290.6768593 -122.09375 286.27929688 C-119.70833967 273.09539736 -117.32559426 259.91118654 -115.01070404 246.7146883 C-113.90939702 240.44646025 -112.73843143 234.19205709 -111.5625 227.9375 C-109.94550604 219.28500416 -108.41490706 210.62526013 -107 201.9375 C-105.50935949 192.81797962 -103.8321293 183.74699764 -102.06420898 174.67749023 C-100.33131654 165.77095667 -98.65684487 156.85469792 -97.01156616 147.93164062 C-96.5636286 145.50611123 -96.1125981 143.08117043 -95.66137695 140.65625 C-94.15041655 132.49983866 -92.71197304 124.33843209 -91.39453125 116.1484375 C-91.01021276 113.80703997 -90.62452013 111.46587253 -90.23849487 109.12475586 C-89.88257218 106.92186603 -89.54961582 104.71628056 -89.21704102 102.50976562 C-88.99739307 101.17038603 -88.77666944 99.83118224 -88.5546875 98.4921875 C-88.37405762 97.33058105 -88.19342773 96.16897461 -88.00732422 94.97216797 C-86.75387038 91.27378042 -85.15581826 90.20992786 -82 88 C-80.84362791 86.7758786 -79.72026936 85.51949462 -78.63671875 84.23046875 C-75.14092867 80.1452777 -71.50514096 76.21960269 -67.8125 72.3125 C-63.18442261 67.39659548 -58.57036733 62.4696214 -54 57.5 C-48.30233875 51.3093182 -42.54768983 45.17299752 -36.7890625 39.0390625 C-33.18518284 35.19970729 -29.59124146 31.35117409 -26 27.5 C-20.96247656 22.10028755 -15.92176045 16.70358134 -10.875 11.3125 C-9.93333984 10.30509766 -9.93333984 10.30509766 -8.97265625 9.27734375 C-6.02882068 6.13468704 -3.07215939 3.01866407 0 0 Z " fill="#FCFCFC" transform="translate(463,296)"/>
<path d="M0 0 C2.15922893 0.0031064 4.31846945 0.00135414 6.47769165 -0.00486755 C12.3146598 -0.00801313 18.14912201 0.05647882 23.98550963 0.13344598 C30.09391296 0.20239122 36.20237906 0.20868612 42.31111145 0.22172546 C53.86752706 0.25586232 65.42279273 0.34605739 76.97870284 0.45656985 C90.13936689 0.5796865 103.30008698 0.64004325 116.46118391 0.69521964 C143.52399421 0.81007875 170.5857851 1.00345647 197.64770508 1.2487793 C197.68122644 6.034768 197.63080369 10.33223306 196.62426758 15.03393555 C196.29942383 16.57210938 196.29942383 16.57210938 195.96801758 18.14135742 C195.73856445 19.18743164 195.50911133 20.23350586 195.27270508 21.3112793 C195.05098633 22.3612207 194.82926758 23.41116211 194.60083008 24.49291992 C193.7350366 28.5392312 192.86047444 32.533608 191.67993164 36.50170898 C190.46256441 40.92085569 189.63762822 45.3432742 188.84301758 49.85424805 C188.67776581 50.77353592 188.51251404 51.69282379 188.34225464 52.63996887 C187.81569025 55.57147881 187.29383077 58.50379807 186.77270508 61.4362793 C186.09035885 65.26356253 185.40539184 69.09036468 184.71801758 72.91674805 C184.5490094 73.86000946 184.38000122 74.80327087 184.20587158 75.77511597 C182.89310667 83.04128925 181.46958406 90.28173967 179.94802856 97.50712585 C179.16524713 101.29900926 178.53383517 105.02698714 178.15991211 108.88232422 C177.76082205 112.84450579 176.78927074 116.4270738 175.64770508 120.2487793 C174.98791014 123.28291646 174.43325087 126.33458322 173.87817383 129.3894043 C173.71706116 130.26169174 173.55594849 131.13397919 173.38995361 132.03269958 C173.0466418 133.89339809 172.70476967 135.75436271 172.36422729 137.61557007 C171.83103734 140.52149375 171.29022344 143.42591004 170.74755859 146.33007812 C169.16765364 154.81025287 167.61354918 163.28834758 166.25708008 171.80737305 C166.05445557 173.03359375 165.85183105 174.25981445 165.64306641 175.52319336 C165.28388603 177.72071707 164.9460519 179.92189111 164.63476562 182.12670898 C163.43656194 189.31712275 160.89159296 193.25073358 155.64770508 198.2487793 C154.93743164 199.00288086 154.2271582 199.75698242 153.49536133 200.53393555 C149.67066746 204.34189115 145.74041658 207.95035535 141.64770508 211.4675293 C139.5643343 213.3230314 137.60489301 215.2610103 135.64770508 217.2487793 C133.16845181 219.76639625 130.65330324 222.14968652 127.96020508 224.4362793 C123.59492319 228.18163949 119.58390175 232.25539315 115.56689453 236.36669922 C112.72151873 239.25793262 109.81573932 242.00706181 106.74145508 244.6550293 C102.49946024 248.32059996 98.5716975 252.2481464 94.64770508 256.2487793 C90.08527399 260.90032036 85.47054042 265.38305995 80.50708008 269.6081543 C78.56664928 271.18366747 78.56664928 271.18366747 77.23687744 273.32293701 C73.00591526 276.46995263 68.49118133 275.77062102 63.36157227 275.70288086 C62.21006683 275.70346497 61.0585614 275.70404907 59.87216187 275.70465088 C56.06266225 275.7018622 52.25394317 275.67073141 48.44458008 275.6394043 C45.80471219 275.63194474 43.16483878 275.62625047 40.52496338 275.62225342 C34.28466846 275.60982494 28.04465411 275.57700539 21.8044827 275.53685546 C14.69936529 275.4921335 7.59423443 275.4701497 0.48901129 275.45007372 C-14.12490213 275.40827243 -28.7385946 275.33792304 -43.35229492 275.2487793 C-43.41644687 275.84876079 -43.48059881 276.44874228 -43.54669476 277.06690502 C-43.63325738 277.86355729 -43.71982 278.66020956 -43.80900574 279.48100281 C-43.89378268 280.2666093 -43.97855963 281.05221579 -44.06590557 281.86162853 C-44.51276946 285.58638807 -45.16900503 289.26603147 -45.84057617 292.95581055 C-45.98386856 293.75548752 -46.12716095 294.55516449 -46.27479553 295.3790741 C-46.73491506 297.94040044 -47.19964101 300.50086288 -47.66479492 303.0612793 C-47.98271594 304.82364008 -48.30058688 306.5860099 -48.6184082 308.34838867 C-50.38046466 318.08580149 -52.17658575 327.81423647 -54.19726562 337.50195312 C-54.850879 340.64339405 -55.36646437 343.56936306 -55.50854492 346.78393555 C-56.73670328 351.82734509 -59.73777482 354.24450297 -63.47729492 357.6862793 C-64.86701766 359.01653483 -66.25506552 360.34854253 -67.64135742 361.68237305 C-68.2673584 362.27074951 -68.89335938 362.85912598 -69.53833008 363.46533203 C-71.97018168 365.85627092 -74.15717693 368.42332668 -76.35229492 371.0300293 C-80.02499162 375.1044272 -83.98711079 378.90152963 -87.88354492 382.76049805 C-90.9823494 385.84085726 -94.03559264 388.90394534 -96.85229492 392.2487793 C-100.88964717 397.04313509 -105.43205575 401.35183686 -109.88134766 405.75830078 C-113.56222491 409.41724901 -117.07395652 413.1261802 -120.41870117 417.09643555 C-123.85703434 420.92375187 -127.57004427 424.48510585 -131.22607422 428.10302734 C-134.90093629 431.75424736 -138.40564324 435.47683267 -141.75854492 439.4284668 C-144.77086526 442.86900914 -147.98180271 446.15779132 -151.35229492 449.2487793 C-151.68229492 449.2487793 -152.01229492 449.2487793 -152.35229492 449.2487793 C-152.04923737 441.52081175 -150.80251323 434.25090938 -149.06713867 426.74731445 C-147.64595767 420.59921586 -146.33688558 414.4370818 -145.10229492 408.2487793 C-144.79811646 406.72426147 -144.79811646 406.72426147 -144.48779297 405.16894531 C-142.21899779 393.70150909 -140.06426877 382.21223328 -137.89001465 370.72659302 C-135.58645989 358.57080256 -133.19187972 346.44280501 -130.64819336 334.3347168 C-128.39664817 323.5736104 -126.27231414 312.78889423 -124.16479492 301.9987793 C-123.99616943 301.13832001 -123.82754395 300.27786072 -123.65380859 299.3913269 C-121.96585447 290.77154504 -120.31555691 282.14978792 -118.81713867 273.49487305 C-117.54583768 266.16563787 -116.07523803 258.88785083 -114.53488159 251.61001587 C-111.42234767 236.86901129 -108.61205084 222.08326423 -105.91674805 207.26098633 C-105.62843198 205.67617079 -105.34002111 204.0913725 -105.05151367 202.5065918 C-104.91019012 201.73026398 -104.76886658 200.95393616 -104.6232605 200.15408325 C-103.17655975 192.23637541 -101.64619998 184.33551516 -100.10229492 176.4362793 C-98.62288155 168.86240334 -97.15536859 161.29259304 -95.85229492 153.6862793 C-94.57615151 146.28167976 -93.0942175 138.92519478 -91.60229492 131.5612793 C-88.71016369 117.28332253 -86.05221841 102.96703256 -83.47932434 88.62826538 C-83.20134599 87.11428289 -82.91327617 85.60211942 -82.61528015 84.09194946 C-81.85955841 80.24740253 -81.25522383 76.47592189 -80.91308594 72.57128906 C-79.18016085 56.92839505 -69.67552886 48.85276209 -58.53979492 38.5612793 C-56.78301845 36.88853739 -55.02973228 35.21212185 -53.2800293 33.53198242 C-50.8109662 31.16144015 -48.33883579 28.79688637 -45.83647156 26.46150208 C-42.38429109 23.23331246 -39.06098837 20.00215733 -35.98632812 16.40966797 C-35.44335335 15.80063692 -34.90037857 15.19160587 -34.34095001 14.56411934 C-32.27962074 12.22778878 -32.27962074 12.22778878 -30.34182549 9.48009491 C-21.79157645 -0.97673834 -12.79299436 -0.25819275 0 0 Z " fill="#FCFCFC" transform="translate(732.352294921875,491.751220703125)"/>
<path d="M0 0 C41.25 0 82.5 0 125 0 C122.77190083 18.93884298 122.77190083 18.93884298 121 25.625 C119.3060206 32.2809209 118.2382417 38.79651993 117.4921875 45.6328125 C117 49 117 49 116.06640625 52.203125 C114.63858424 57.28679897 113.88494405 62.41456549 113.0625 67.625 C112.69510035 69.78403992 112.32662105 71.94289642 111.95703125 74.1015625 C111.40336608 77.38235054 110.94573004 80.58238088 110.63671875 83.8984375 C109.18789494 95.51829714 98.87709384 103.44620921 90.19024658 110.46151733 C86.44452759 113.56069729 83.53741363 116.48036864 80.90283203 120.58154297 C76.50947749 126.89557815 71.49514533 132.63575352 63.78288269 134.5504303 C50.42348 136.75777951 36.5085986 135.75783018 23.04345703 135.23596191 C17.73469783 135.0500449 12.42437427 134.96924775 7.11328125 134.87890625 C-3.26190663 134.68726885 -13.63016146 134.38112333 -24 134 C-16.6175308 89.2201946 -8.26474858 44.62964231 0 0 Z " fill="#010101" transform="translate(419,563)"/>
<path d="M0 0 C37.95 0 75.9 0 115 0 C112.74839228 15.76125402 112.74839228 15.76125402 111.73828125 21.28515625 C111.50971436 22.54013916 111.28114746 23.79512207 111.0456543 25.08813477 C110.80135156 26.41293831 110.55696459 27.73772632 110.3125 29.0625 C110.0543104 30.47385264 109.79625722 31.88523024 109.53833008 33.29663086 C108.08353166 41.23459342 106.59437591 49.16581641 105.0859375 57.09375 C104.92725693 57.92845322 104.76857635 58.76315643 104.60508728 59.62315369 C103.83180838 63.68781725 103.05513738 67.75178564 102.27270508 71.81469727 C101.98774395 73.30484089 101.70282954 74.79499344 101.41796875 76.28515625 C101.22459427 77.28011108 101.22459427 77.28011108 101.02731323 78.29516602 C100.28633298 82.15743615 100.28633298 82.15743615 99.86175537 86.06307983 C99.48112206 91.49826439 98.01749266 93.81457762 94.1171875 97.53125 C93.37844894 98.2515741 93.37844894 98.2515741 92.62478638 98.9864502 C91.05733419 100.50846943 89.46774043 102.00450769 87.875 103.5 C86.31403437 104.99564314 84.75809243 106.49636061 83.20294189 107.99804688 C82.18814878 108.9778303 81.17150548 109.95570106 80.15301514 110.93164062 C77.45210421 113.53318694 74.88015534 116.17971074 72.4453125 119.03125 C71.93614792 119.60848312 71.42698334 120.18571625 70.90238953 120.78044128 C69.52172095 122.39129697 68.20615199 124.05867307 66.93336487 125.75605774 C63.12406259 130.30962698 59.87239022 133.98187328 53.80828857 134.96774292 C48.79275915 135.40918284 43.7948082 135.23975104 38.76953125 135.07421875 C36.92441985 135.05366575 35.07924782 135.03802497 33.23405457 135.02705383 C28.41065545 134.98533628 23.59098347 134.87755052 18.76904297 134.75531006 C13.83547377 134.64215574 8.90129361 134.59241202 3.96679688 134.53710938 C-5.69042709 134.41964032 -15.34490196 134.23226473 -25 134 C-25.08514987 129.10012701 -24.6375215 125.60782311 -23 121 C-22.53340977 118.49163133 -22.11927897 115.9731745 -21.74609375 113.44921875 C-21.64031509 112.74980667 -21.53453644 112.05039459 -21.42555237 111.32978821 C-21.09115992 109.11641248 -20.76365207 106.90210387 -20.4375 104.6875 C-20.10733729 102.45511985 -19.77559608 100.22303328 -19.43873596 97.99165344 C-19.13522066 95.9803342 -18.83784565 93.96809123 -18.54077148 91.95581055 C-18 89 -18 89 -17 88 C-16.45428628 84.57897115 -16.0336437 81.14754446 -15.59765625 77.7109375 C-15.00182495 74.01133138 -14.04042875 70.59702132 -13 67 C-12.30739695 63.84580467 -11.71451891 60.67488619 -11.125 57.5 C-10.95500488 56.59797852 -10.78500977 55.69595703 -10.60986328 54.76660156 C-9.12567218 46.8263836 -7.73849241 38.86946466 -6.39501953 30.90429688 C-5.42706608 25.22049044 -4.27943586 19.62204663 -3 14 C-2.01 9.38 -1.02 4.76 0 0 Z " fill="#010101" transform="translate(727,563)"/>
<path d="M0 0 C19.8 0 39.6 0 60 0 C56.86538214 20.89745239 56.86538214 20.89745239 54.68359375 28.12109375 C53.61763788 32.61029075 53.21744091 37.162322 52.82202148 41.75439453 C52.08849301 49.69322684 50.49763249 57.01262672 49 65 C29.53 65 10.06 65 -10 65 C-9.3516153 57.86776826 -8.61522828 50.94259071 -7.44140625 43.90625 C-7.21758522 42.53708435 -7.21758522 42.53708435 -6.98924255 41.14025879 C-6.51729128 38.25956245 -6.03988325 35.37980052 -5.5625 32.5 C-5.24640949 30.57166952 -4.93065187 28.64328443 -4.61523438 26.71484375 C-4.30759299 24.84109634 -3.99965997 22.96739678 -3.69140625 21.09375 C-3.55174942 20.24445923 -3.41209259 19.39516846 -3.26820374 18.5201416 C-2.24194426 12.33288627 -1.12229214 6.17260676 0 0 Z " fill="#F61127" transform="translate(931,702)"/>
<path d="M0 0 C0.33 0 0.66 0 1 0 C1.125 7.75 1.125 7.75 0 10 C25.65112114 9.91621722 51.30217862 9.82112754 76.95320702 9.71247292 C88.86267174 9.66229126 100.77212939 9.61584909 112.68164062 9.578125 C123.05857523 9.54524605 133.43545579 9.50543774 143.81233084 9.45720994 C149.30986601 9.43190409 154.80736514 9.41013499 160.30494308 9.39665604 C165.47425916 9.38387263 170.64345189 9.36185887 175.81270027 9.33261681 C177.71466429 9.32351179 179.61664819 9.31784404 181.51863289 9.31578636 C184.10610017 9.31248436 186.69321334 9.2970636 189.28060913 9.2784729 C190.04130026 9.28040763 190.80199139 9.28234237 191.58573377 9.28433573 C195.74879322 9.37364567 195.74879322 9.37364567 199 7 C199.99 7.99 199.99 7.99 201 9 C198.48145326 11.51854674 196.94259773 11.23863816 193.50721443 11.25816262 C192.34866846 11.24942409 192.34866846 11.24942409 191.16671753 11.24050903 C189.93908855 11.24307231 189.93908855 11.24307231 188.68665898 11.24568737 C185.92887655 11.24899634 183.17133444 11.23795553 180.41357422 11.22705078 C178.44286098 11.22648697 176.47214732 11.22680264 174.50143433 11.22793579 C169.13805093 11.22851148 163.77475633 11.21672223 158.41139364 11.20278788 C152.81130513 11.19031649 147.21121476 11.18911286 141.6111145 11.18673706 C131.00053759 11.1805117 120.39000172 11.16408664 109.77944291 11.14403808 C97.70224389 11.12171188 85.62504294 11.11069391 73.54782844 11.10064721 C48.69852951 11.0797213 23.84926705 11.04452486 -1 11 C-0.67 7.37 -0.34 3.74 0 0 Z " fill="#CBCCCC" transform="translate(308,756)"/>
<path d="M0 0 C0.99 0.66 1.98 1.32 3 2 C0.35746891 4.64253109 -1.55563424 4.23625334 -5.15074158 4.24884033 C-6.44438377 4.2380545 -6.44438377 4.2380545 -7.76416016 4.22705078 C-8.67153427 4.22734283 -9.57890839 4.22763489 -10.51377869 4.22793579 C-13.52230286 4.22653898 -16.53058142 4.21096128 -19.5390625 4.1953125 C-21.62128565 4.19158362 -23.70351055 4.18873606 -25.78573608 4.18673706 C-31.27340517 4.17909077 -36.76096884 4.15943375 -42.24859619 4.1373291 C-47.84540379 4.11689209 -53.44222837 4.10773994 -59.0390625 4.09765625 C-70.02608805 4.07618879 -81.01303527 4.04204086 -92 4 C-92 3.67 -92 3.34 -92 3 C-46.955 2.505 -46.955 2.505 -1 2 C-0.67 1.34 -0.34 0.68 0 0 Z " fill="#D4D4D4" transform="translate(506,763)"/>
<path d="M0 0 C0.33 0 0.66 0 1 0 C2.25 6.5 2.25 6.5 0 11 C27.06 11 54.12 11 82 11 C82 11.33 82 11.66 82 12 C54.61 12 27.22 12 -1 12 C-1 4.125 -1 4.125 0 0 Z " fill="#242525" transform="translate(703,685)"/>
<path d="M0 0 C0 3 0 3 -1.3125 4.38671875 C-2.875 5.59114583 -4.4375 6.79557292 -6 8 C-4.55746343 4.63408134 -2.66735273 2.48952921 0 0 Z M-7 8 C-7 12.07587476 -8.25991672 12.98590839 -11 16 C-12.99924166 17.82626904 -15.03284827 19.59984441 -17.09765625 21.3515625 C-18.81221871 22.83728192 -20.41884241 24.37451089 -22 26 C-22.66 25.67 -23.32 25.34 -24 25 C-18.39 19.39 -12.78 13.78 -7 8 Z " fill="#242424" transform="translate(622,897)"/>
<path d="M0 0 C0.33 0 0.66 0 1 0 C2.25 6.5 2.25 6.5 0 11 C6.93 11 13.86 11 21 11 C21 11.33 21 11.66 21 12 C13.74 12 6.48 12 -1 12 C-1 4.125 -1 4.125 0 0 Z " fill="#3B3B3B" transform="translate(703,685)"/>
<path d="M0 0 C0.66 0.66 1.32 1.32 2 2 C0.40517782 3.67561054 -1.20116844 5.34025934 -2.8125 7 C-4.15248047 8.3921875 -4.15248047 8.3921875 -5.51953125 9.8125 C-8 12 -8 12 -11 12 C-11 11.34 -11 10.68 -11 10 C-9.35546875 8.37890625 -9.35546875 8.37890625 -7.1875 6.5625 C-4.68897282 4.45536324 -2.2757944 2.34758602 0 0 Z " fill="#0B0B0B" transform="translate(708,493)"/>
<path d="M0 0 C0.66 0.33 1.32 0.66 2 1 C0.5484451 2.67257355 -0.91144409 4.33791758 -2.375 6 C-3.18710937 6.928125 -3.99921875 7.85625 -4.8359375 8.8125 C-5.55007813 9.534375 -6.26421875 10.25625 -7 11 C-7.66 11 -8.32 11 -9 11 C-9 11.66 -9 12.32 -9 13 C-9.99 12.67 -10.98 12.34 -12 12 C-8.04 8.04 -4.08 4.08 0 0 Z " fill="#141414" transform="translate(594,927)"/>
<path d="M0 0 C0.33 0 0.66 0 1 0 C1.90276539 5.0780553 2 9.85270294 2 15 C1.01 15.495 1.01 15.495 0 16 C-1.69057861 10.71694183 -1.29188056 5.32900731 0 0 Z " fill="#CBCBCD" transform="translate(329,643)"/>
<path d="M0 0 C0.66 0.33 1.32 0.66 2 1 C-0.97 4.3 -3.94 7.6 -7 11 C-7.66 10.34 -8.32 9.68 -9 9 C-6.03 6.03 -3.06 3.06 0 0 Z " fill="#252526" transform="translate(533,741)"/>
<path d="M0 0 C0.25 2.75 0.25 2.75 0 6 C-2 8.375 -2 8.375 -4 10 C-3.88637738 8.5199159 -3.75877092 7.04089926 -3.625 5.5625 C-3.55539062 4.73878906 -3.48578125 3.91507813 -3.4140625 3.06640625 C-3.27742187 2.38449219 -3.14078125 1.70257812 -3 1 C-1 0 -1 0 0 0 Z " fill="#ECECED" transform="translate(598,859)"/>
<path d="M0 0 C0.99 0.66 1.98 1.32 3 2 C1 4 1 4 -2.4765625 4.1953125 C-3.85950968 4.18201493 -5.24238654 4.15816232 -6.625 4.125 C-7.33140625 4.11597656 -8.0378125 4.10695313 -8.765625 4.09765625 C-10.51056098 4.07407603 -12.25532295 4.03820461 -14 4 C-14 3.67 -14 3.34 -14 3 C-13.07316406 2.95101562 -12.14632813 2.90203125 -11.19140625 2.8515625 C-9.99386719 2.77679687 -8.79632813 2.70203125 -7.5625 2.625 C-6.36753906 2.55539062 -5.17257812 2.48578125 -3.94140625 2.4140625 C-2.97074219 2.27742187 -2.00007813 2.14078125 -1 2 C-0.67 1.34 -0.34 0.68 0 0 Z " fill="#C9C9CA" transform="translate(506,763)"/>
<path d="M0 0 C5.28 0.33 10.56 0.66 16 1 C16 1.33 16 1.66 16 2 C14.75283203 2.09087891 14.75283203 2.09087891 13.48046875 2.18359375 C11.85044922 2.30927734 11.85044922 2.30927734 10.1875 2.4375 C8.56908203 2.55931641 8.56908203 2.55931641 6.91796875 2.68359375 C3.94010095 2.90212461 3.94010095 2.90212461 1 4 C0.67 2.68 0.34 1.36 0 0 Z " fill="#0F0F0F" transform="translate(727,563)"/>
<path d="M0 0 C0.33 0 0.66 0 1 0 C1.08078641 2.12438339 1.13909141 4.2496323 1.1875 6.375 C1.22230469 7.55835938 1.25710938 8.74171875 1.29296875 9.9609375 C1.19628906 10.96382812 1.09960938 11.96671875 1 13 C0.01 13.66 -0.98 14.32 -2 15 C-1.47462276 9.9697924 -0.89405214 4.98114761 0 0 Z " fill="#4F504F" transform="translate(686,781)"/>
<path d="M0 0 C0.33 0 0.66 0 1 0 C2.6112798 5.71271928 1.08989546 9.68670645 -1 15 C-2.20220203 11.46905698 -1.79532349 8.87101018 -1.0625 5.25 C-0.86785156 4.26515625 -0.67320312 3.2803125 -0.47265625 2.265625 C-0.31667969 1.51796875 -0.16070313 0.7703125 0 0 Z " fill="#4C4C4C" transform="translate(707,665)"/>
<path d="M0 0 C0.33 0 0.66 0 1 0 C2.6112798 5.71271928 1.08989546 9.68670645 -1 15 C-2.20220203 11.46905698 -1.79532349 8.87101018 -1.0625 5.25 C-0.86785156 4.26515625 -0.67320312 3.2803125 -0.47265625 2.265625 C-0.31667969 1.51796875 -0.16070313 0.7703125 0 0 Z " fill="#4C4C4C" transform="translate(916,565)"/>
<path d="M0 0 C0.99 0.33 1.98 0.66 3 1 C0.03 3.475 0.03 3.475 -3 6 C-3 4.68 -3 3.36 -3 2 C-2.01 1.34 -1.02 0.68 0 0 Z " fill="#EDEDED" transform="translate(887,687)"/>
<path d="M0 0 C2.05825864 4.11651727 2.34008135 4.86808251 1 9 C0.01 9.495 0.01 9.495 -1 10 C-0.67 6.7 -0.34 3.4 0 0 Z " fill="#E8E8E9" transform="translate(363,460)"/>
<path d="M0 0 C1.10844919 3.32534757 0.84454356 5.62182575 0 9 C-0.66 8.67 -1.32 8.34 -2 8 C-1.125 1.125 -1.125 1.125 0 0 Z " fill="#F3F3F4" transform="translate(543,574)"/>
</svg>
