<?xml version="1.0" encoding="UTF-8"?>
<svg version="1.1" xmlns="http://www.w3.org/2000/svg" width="1672" height="941">
<path d="M0 0 C551.76 0 1103.52 0 1672 0 C1672 310.53 1672 621.06 1672 941 C1120.24 941 568.48 941 0 941 C0 630.47 0 319.94 0 0 Z " fill="#000000" transform="translate(0,0)"/>
<path d="M0 0 C0.33 0 0.66 0 1 0 C0.5292062 10.94595578 -1.58947271 21.61810038 -3.53320312 32.37646484 C-4.27964508 36.57168727 -4.94784516 40.77826108 -5.60546875 44.98828125 C-6 47 -6 47 -7 49 C-7.25096894 50.37691831 -7.46125833 51.76140708 -7.6484375 53.1484375 C-7.76517822 53.98286377 -7.88191895 54.81729004 -8.00219727 55.67700195 C-8.12522217 56.56734131 -8.24824707 57.45768066 -8.375 58.375 C-9.33442847 65.08743488 -10.54324301 71.55596006 -12.3203125 78.10546875 C-13.10224387 81.43541785 -13.52871886 84.72924791 -13.9375 88.125 C-14.71262427 94.44130192 -15.94645124 100.52075608 -17.39160156 106.71386719 C-19.1143854 114.22188059 -20.41756739 121.78962355 -21.69287109 129.38476562 C-21.92804443 130.7837207 -21.92804443 130.7837207 -22.16796875 132.2109375 C-22.30485107 133.03899902 -22.4417334 133.86706055 -22.58276367 134.72021484 C-22.96908172 136.83106211 -23.47954105 138.9181642 -24 141 C21.87 141 67.74 141 115 141 C114.4030963 146.96903704 113.85887237 152.31608231 112.65234375 158.0859375 C112.378038 159.41999206 112.10378951 160.7540584 111.82958984 162.08813477 C111.68463074 162.78399689 111.53967163 163.47985901 111.39031982 164.19680786 C108.32440095 178.94474962 105.54279932 193.73791409 102.875 208.5625 C102.20347498 212.28912566 101.53162667 216.01569285 100.859375 219.7421875 C100.69918381 220.63039688 100.53899261 221.51860626 100.37394714 222.43373108 C99.0015022 230.02686508 97.58332927 237.61033401 96.125 245.1875 C95.93405762 246.18273682 95.74311523 247.17797363 95.54638672 248.20336914 C95.20009011 249.98901008 94.84501053 251.77298212 94.47900391 253.5546875 C94.16222308 255.17185202 93.8875947 256.79790123 93.65771484 258.4296875 C92.64627562 264.69510089 90.18065906 267.61524674 85.375 271.625 C84.78332031 272.14578125 84.19164062 272.6665625 83.58203125 273.203125 C81.73692061 274.82108379 79.87025778 276.41121434 78 278 C72.4028038 282.8182122 66.97989653 287.78953222 61.625 292.875 C55.491796 298.67341197 49.30909939 304.39311201 43 310 C41.18620529 311.62355475 39.37370599 313.24855784 37.5625 314.875 C36.75941406 315.59429688 35.95632813 316.31359375 35.12890625 317.0546875 C33.0482422 318.85474029 33.0482422 318.85474029 31.72167492 320.59903431 C29.25419877 322.60687527 27.4790962 322.36923661 24.32429504 322.36076355 C22.5511367 322.36694954 22.5511367 322.36694954 20.74215698 322.3732605 C19.44383942 322.36247467 18.14552185 322.35168884 16.80786133 322.34057617 C15.42812621 322.33973003 14.04838973 322.34020478 12.6686554 322.34190369 C8.92090069 322.3427656 5.17343313 322.32510838 1.42574525 322.30418181 C-2.49002492 322.28544754 -6.40580143 322.28366714 -10.3216095 322.28010559 C-17.73767674 322.27077555 -25.15361155 322.24614885 -32.56962043 322.21605712 C-41.01207417 322.18254291 -49.45453418 322.16603461 -57.89703786 322.15097082 C-75.26476855 322.11960008 -92.63237028 322.06682101 -110 322 C-109.43009303 317.36821768 -108.8352317 312.78165887 -107.984375 308.19140625 C-107.68974365 306.5973999 -107.68974365 306.5973999 -107.38916016 304.97119141 C-107.07277588 303.28388916 -107.07277588 303.28388916 -106.75 301.5625 C-106.52747559 300.36802246 -106.30495117 299.17354492 -106.07568359 297.94287109 C-104.64795092 290.3252784 -103.16074725 282.72147536 -101.625 275.125 C-97.19459277 253.20492233 -92.96755872 231.22685302 -89.24194336 209.17529297 C-88.41288626 204.27653944 -87.49485009 199.4055796 -86.50708008 194.53637695 C-85.6194345 190.09643956 -84.81590331 185.64107683 -84 181.1875 C-82.27233142 171.7952039 -80.51215099 162.40953682 -78.73046875 153.02734375 C-78.52699829 151.95252243 -78.32352783 150.87770111 -78.1138916 149.77030945 C-77.03732374 144.08555242 -75.95213403 138.40266794 -74.85205078 132.72241211 C-72.70498854 121.56183853 -70.70809658 110.42125704 -69.13671875 99.1640625 C-63.9807878 63.14983459 -63.9807878 63.14983459 -50.8359375 52.8203125 C-50.17045898 52.33981445 -49.50498047 51.85931641 -48.81933594 51.36425781 C-46.24753422 49.43575164 -44.25927133 47.13323728 -42.1875 44.6875 C-41.4965625 43.91535156 -40.805625 43.14320313 -40.09375 42.34765625 C-38.63400668 40.71089182 -37.17579068 39.07276452 -35.71875 37.43359375 C-28.7990952 29.75576689 -21.52938421 22.46112666 -14.16870117 15.20556641 C-9.67286329 10.75588702 -5.35719028 6.25099793 -1.28613281 1.40722656 C-0.64949707 0.71064941 -0.64949707 0.71064941 0 0 Z " fill="#FBFBFB" transform="translate(310,260)"/>
<path d="M0 0 C50.16 0 100.32 0 152 0 C149.525 12.87 149.525 12.87 147 26 C145.75943546 32.57861416 144.52103464 39.15743868 143.29119873 45.73803711 C142.72830593 48.74072453 142.16069655 51.74249326 141.59228516 54.74414062 C139.74403802 64.52723647 137.92943245 74.31271658 136.24389648 84.12533569 C135.4857455 88.52759926 134.70804993 92.92631285 133.92883301 97.32489014 C133.56282933 99.42317945 133.20644649 101.52317217 132.86022949 103.62481689 C132.37650038 106.55678481 131.85972443 109.4812123 131.3359375 112.40625 C131.13769882 113.69062454 131.13769882 113.69062454 130.93545532 115.00094604 C129.70032573 121.60640491 126.74986284 125.35240512 122 130 C121.29085449 130.72155273 120.58170898 131.44310547 119.85107422 132.18652344 C119.2582666 132.73856445 118.66545898 133.29060547 118.0546875 133.859375 C117.37696289 134.49391602 116.69923828 135.12845703 116.00097656 135.78222656 C115.2994043 136.4315918 114.59783203 137.08095703 113.875 137.75 C113.13217773 138.44319336 112.38935547 139.13638672 111.62402344 139.85058594 C109.42011185 141.90485505 107.2110279 143.95339496 105 146 C104.3925293 146.56332031 103.78505859 147.12664062 103.15917969 147.70703125 C99.96779406 150.66534846 96.76859751 153.61503887 93.56494141 156.56005859 C91.95158887 158.04454428 90.34066171 159.53161933 88.73046875 161.01953125 C88.17907227 161.5290332 87.62767578 162.03853516 87.05957031 162.56347656 C86.52428711 163.0581543 85.98900391 163.55283203 85.4375 164.0625 C83.94130947 165.44500441 82.442644 166.82525757 80.91703796 168.17523193 C78.85939378 170.07566832 78.85939378 170.07566832 76.66853333 172.6885376 C71.98483538 177.86687038 67.88619136 181.51381101 60.73566723 182.1704216 C56.73570319 182.3092215 52.76414139 182.21511911 48.765625 182.07421875 C47.03404729 182.05365715 45.30240481 182.03802046 43.57073975 182.02705383 C39.05136919 181.98540224 34.53599755 181.87768117 30.01818848 181.75531006 C25.39288419 181.64200775 20.7669222 181.59238117 16.140625 181.53710938 C7.09200966 181.41975824 -1.95366047 181.23246982 -11 181 C-11.16435547 182.29357422 -11.16435547 182.29357422 -11.33203125 183.61328125 C-11.57963514 185.51962986 -11.82868146 187.42588729 -12.10026932 189.32896709 C-12.64240424 193.13459631 -13.08512204 196.91468183 -13.37615967 200.74824524 C-14.55598845 213.61768056 -18.74100051 219.9664795 -28.078125 228.60546875 C-29.29376214 229.7885938 -30.5057535 230.97547499 -31.71429443 232.16584778 C-34.8734215 235.25895329 -38.07700765 238.3013773 -41.29388428 241.33422852 C-44.55007207 244.41921982 -47.76411342 247.54741666 -50.98046875 250.67382812 C-54.6058893 254.19576118 -58.23417045 257.71360719 -61.89825439 261.19535828 C-67.01447637 266.06460651 -72.03918032 270.9072427 -76.52142334 276.38398743 C-78.18557395 278.20282333 -79.99219557 279.57760544 -82 281 C-82.23952228 274.57780884 -81.35008408 268.89119095 -80 262.625 C-79.53567765 260.38584755 -79.07360828 258.14622722 -78.61328125 255.90625 C-78.35627441 254.6584375 -78.09926758 253.410625 -77.83447266 252.125 C-76.20757634 244.14039919 -74.70703405 236.13056447 -73.1875 228.125 C-73.01790771 227.23264648 -72.84831543 226.34029297 -72.67358398 225.42089844 C-67.10599468 196.1144904 -61.67106915 166.78457415 -56.36523438 137.4296875 C-54.10923797 124.95637919 -51.75765685 112.50855684 -49.29736328 100.07373047 C-47.73653159 92.08095825 -46.30184255 84.07264291 -44.921875 76.046875 C-44.74217163 75.00288544 -44.56246826 73.95889587 -44.37731934 72.88327026 C-43.48066661 67.66278225 -42.59250069 62.44099953 -41.71484375 57.21728516 C-41.3881201 55.2984857 -41.06130156 53.3797024 -40.734375 51.4609375 C-40.58877136 50.57903748 -40.44316772 49.69713745 -40.29315186 48.78851318 C-39.20760928 42.45698331 -38.33763809 37.67011048 -33.125 33.5 C-30.79509963 31.5625918 -28.90068332 29.87585415 -27 27.5 C-25.23227323 25.29034154 -23.58895672 23.74124654 -21.4375 21.9375 C-17.23220181 18.36220903 -13.59093677 14.39358933 -9.94506836 10.26342773 C-7.17342233 7.15440811 -4.26214652 4.57658158 -1 2 C-0.67 1.34 -0.34 0.68 0 0 Z " fill="#FBFBFB" transform="translate(719,401)"/>
<path d="M0 0 C1.56594922 3.13189844 0.06205895 5.92206056 -0.875 9.125 C-2.59776692 15.17235754 -2.59776692 15.17235754 -3.5625 21.375 C-3.91693535 24.31175001 -4.37563667 26.23665655 -5.375 28.9375 C-7.2236205 34.10461975 -8.04624256 39.3956681 -8.90966797 44.79663086 C-9.64527476 49.3213952 -10.71677169 53.59060912 -12 58 C-13.06420962 62.30248426 -14.06377493 66.61941133 -15.0625 70.9375 C-15.4656543 72.64969727 -15.4656543 72.64969727 -15.87695312 74.39648438 C-17.49479386 81.33826009 -17.49479386 81.33826009 -18.55859375 88.37890625 C-19.01312797 92.10769581 -19.92165466 95.40551555 -21 99 C-24.33782538 112.20458394 -26.93103796 125.57544931 -29.47851562 138.94970703 C-31.80109237 151.11225233 -34.2648574 163.24473229 -36.75 175.375 C-36.94654175 176.33601624 -37.1430835 177.29703247 -37.34558105 178.28717041 C-37.91161394 181.05364578 -38.47893422 183.81985323 -39.046875 186.5859375 C-39.29812134 187.81234955 -39.29812134 187.81234955 -39.55444336 189.0635376 C-40.6508205 194.38771959 -41.80573007 199.69693163 -43 205 C-37.60720027 200.39291206 -32.4816417 195.60938955 -27.5 190.5625 C-26.82001953 189.87873291 -26.14003906 189.19496582 -25.43945312 188.49047852 C-23.29049074 186.32942945 -21.14482721 184.16515274 -19 182 C-16.16966163 179.14283983 -13.33587327 176.28916546 -10.5 173.4375 C-9.54963867 172.47469116 -9.54963867 172.47469116 -8.58007812 171.49243164 C-4.81270612 167.70479963 -0.917901 164.14116407 3.125 160.65014648 C5.78526398 158.30890635 8.25952851 155.83463003 10.75 153.3125 C11.25241211 152.80630127 11.75482422 152.30010254 12.27246094 151.77856445 C13.85082712 150.1881815 15.42585009 148.59455555 17 147 C29.7107347 134.12449652 29.7107347 134.12449652 34.90942383 129.99682617 C37.20839023 127.94645379 37.20839023 127.94645379 39.19018555 124.71606445 C43.01836753 119.32588701 46.71328336 115.65900493 53.38043213 114.32220459 C62.73961657 113.42821731 72.10616673 113.74947894 81.48773193 114.10736084 C85.38217417 114.24160964 89.27772729 114.29998278 93.17382812 114.36523438 C100.78557422 114.50366 108.39183931 114.72476678 116 115 C116 117 116 117 114.6015625 118.41015625 C113.94929688 118.95542969 113.29703125 119.50070312 112.625 120.0625 C109.41657062 122.7907947 106.25019633 125.55144446 103.125 128.375 C99.79567296 131.37951464 96.46261934 134.37970059 93.125 137.375 C89.35261768 140.76777152 85.60916532 144.19036352 81.875 147.625 C78.63782784 150.60218281 75.38862271 153.55952856 72.0625 156.4375 C67.930891 160.01937309 63.93070073 163.73837958 59.92041016 167.45458984 C55.82036521 171.25136652 51.68011827 175.00005551 47.51953125 178.73046875 C44.70741979 181.263549 41.91364419 183.816162 39.125 186.375 C38.62508545 186.83366455 38.1251709 187.2923291 37.61010742 187.76489258 C35.02204589 190.14070238 32.43620045 192.51890411 29.8515625 194.8984375 C26.9080868 197.60674808 23.95646465 200.30586954 21 203 C19.78183594 204.11181641 19.78183594 204.11181641 18.5390625 205.24609375 C17.82492187 205.88675781 17.11078125 206.52742187 16.375 207.1875 C15.76398438 207.73792969 15.15296875 208.28835938 14.5234375 208.85546875 C13 210 13 210 11 210 C15.53876886 215.40624687 20.35015796 220.43662139 25.44262695 225.31762695 C26.66470797 226.50895842 27.83707626 227.75085587 29 229 C29 229.66 29 230.32 29 231 C29.56235352 231.22461914 30.12470703 231.44923828 30.70410156 231.68066406 C33.68904584 233.39595956 35.45534846 235.51874589 37.734375 238.109375 C43.75106828 244.80043862 50.07868336 251.16830518 56.453125 257.515625 C57.22471199 258.28477989 57.22471199 258.28477989 58.0118866 259.06947327 C61.75441481 262.79984912 65.50169505 266.52542999 69.25 270.25 C73.04074393 274.01707876 76.8297801 277.78584619 80.61470795 281.55876923 C82.12174364 283.05932483 83.63175068 284.55684596 85.14190674 286.05426025 C86.04414978 286.95320007 86.94639282 287.85213989 87.87597656 288.77832031 C88.67473206 289.57183899 89.47348755 290.36535767 90.29644775 291.18292236 C92 293 92 293 92 294 C83.13319759 294.35007847 74.2688269 294.61528956 65.3965826 294.77718258 C61.27481812 294.85495621 57.15783158 294.96007355 53.03881836 295.1315918 C22.74880073 296.3598456 22.74880073 296.3598456 14.53808594 288.97291565 C11.69079918 285.84065083 9.31755185 282.532516 7 279 C5.82777239 277.6121615 4.6341935 276.24145016 3.40234375 274.90625 C2.89815918 274.31070312 2.39397461 273.71515625 1.87451172 273.1015625 C-2.97333926 267.66651415 -8.27093592 262.62944494 -13.4375 257.5 C-14.6584369 256.28408886 -15.87914192 255.06794484 -17.09960938 253.8515625 C-20.06374013 250.89835034 -23.03098958 247.94830602 -26 245 C-31.7349894 249.10391113 -36.91602558 253.55708315 -42 258.4375 C-47.22664208 263.42424737 -52.5256126 268.28578878 -58 273 C-58.5662207 273.48831299 -59.13244141 273.97662598 -59.71582031 274.47973633 C-61.34978309 275.88518819 -62.98690396 277.2868687 -64.625 278.6875 C-65.51505737 279.45006104 -65.51505737 279.45006104 -66.4230957 280.22802734 C-69.48776706 282.85327446 -72.55595144 285.47429764 -75.62890625 288.08984375 C-81.05479877 292.71456296 -86.43726632 297.36235626 -91.6875 302.1875 C-96.15145255 306.28329151 -100.76174923 310.1462963 -105.4765625 313.94921875 C-107.73076172 315.7811918 -109.93532707 317.65435645 -112.125 319.5625 C-115 322 -115 322 -116 322 C-115.49130732 314.20655641 -114.51433366 306.7068263 -112.9375 299.0625 C-110.44685143 286.57163404 -108.20893409 274.04316112 -106 261.5 C-103.00153562 244.50584302 -99.97515219 227.51814915 -96.51049805 210.61132812 C-95.03633655 203.39226176 -93.79625987 196.13853071 -92.5625 188.875 C-88.37187919 164.44463689 -88.37187919 164.44463689 -85.80078125 152.31640625 C-85.32494521 150.06522576 -84.84972082 147.81391593 -84.375 145.5625 C-84.12661377 144.38494141 -83.87822754 143.20738281 -83.62231445 141.99414062 C-81.85654259 133.48403405 -80.23608049 124.9532414 -78.6796875 116.40234375 C-78.37911942 114.75172691 -78.37911942 114.75172691 -78.07247925 113.06776428 C-77.06310599 107.51105301 -76.06284777 101.9528259 -75.07177734 96.39282227 C-74.69896048 94.32436939 -74.3260792 92.25592812 -73.953125 90.1875 C-73.78561737 89.23346786 -73.61810974 88.27943573 -73.44552612 87.29649353 C-72.19595718 80.3990685 -71.05019571 75.61868684 -65.8125 70.6875 C-62.98608636 67.95530015 -60.24807263 65.23313019 -57.6875 62.25 C-46.55435238 49.30803435 -34.58576195 37.04149525 -22.875 24.625 C-15.18730487 16.47245485 -7.53940224 8.2901478 0 0 Z " fill="#FBFBFB" transform="translate(1345,288)"/>
<path d="M0 0 C54.12 0 108.24 0 164 0 C161.75002504 13.49984977 161.75002504 13.49984977 160.4753418 19.8503418 C160.33677765 20.54345459 160.1982135 21.23656738 160.05545044 21.95068359 C159.60519967 24.20056584 159.15223576 26.44989202 158.69921875 28.69921875 C158.37758069 30.30366141 158.05611742 31.90813912 157.7348175 33.51264954 C156.89181508 37.72008104 156.04651237 41.92704704 155.20068359 46.13391113 C154.35704397 50.33184102 153.51550128 54.5301911 152.67382812 58.72851562 C151.53188409 64.42374583 150.3891868 70.11882378 149.24539661 75.81368351 C147.56465807 84.18204828 145.88989222 92.55158785 144.21875 100.921875 C142.44337915 109.80770802 140.64757287 118.68879148 138.8125 127.5625 C138.56564453 128.76583984 138.31878906 129.96917969 138.06445312 131.20898438 C137.5935765 133.48802724 137.11624322 135.76575075 136.63085938 138.04174805 C136.24693263 139.84207326 135.87515073 141.64511881 135.52539062 143.45239258 C134.57654196 147.95158632 133.25720169 150.45723817 129.875 153.5625 C128.65876953 154.69751953 128.65876953 154.69751953 127.41796875 155.85546875 C126.62003906 156.56316406 125.82210938 157.27085937 125 158 C124.35675781 158.57363281 123.71351563 159.14726563 123.05078125 159.73828125 C121.78107086 160.85360338 120.50472156 161.96140216 119.22265625 163.0625 C116.48006765 165.4532275 113.80140236 167.91086986 111.125 170.375 C106.65767632 174.48596988 102.15982431 178.55970239 97.63671875 182.609375 C95.66526949 184.39682233 93.71188739 186.19705484 91.76953125 188.015625 C86.05465928 193.36043964 80.40757849 198.47700342 74 203 C74.53114308 194.52002598 75.90489156 186.24294328 77.45947266 177.90136719 C78.09696605 174.47951919 78.72568662 171.05608797 79.35546875 167.6328125 C82.72434031 149.38754611 86.27637225 131.18841721 90.31640625 113.078125 C92.45627465 103.46102441 94.40750869 93.90299031 95.83422852 84.15356445 C97.18415319 75.24368428 99.27027048 66.50017461 101.36157227 57.73974609 C102.27181388 53.83353905 103.12992243 49.91534906 104 46 C83.54 46 63.08 46 42 46 C41.67 47.98 41.34 49.96 41 52 C40.10290715 56.94112451 39.1754556 61.87661791 38.25 66.8125 C38.05124771 67.87354446 38.05124771 67.87354446 37.84848022 68.95602417 C35.19552747 83.10264816 32.39797474 97.21821503 29.52734375 111.32226562 C28.25442071 117.57793698 26.99899231 123.82953409 25.9375 130.125 C25.77121094 131.08277344 25.60492187 132.04054688 25.43359375 133.02734375 C24.95242233 136.04845524 24.95242233 136.04845524 24.78515625 139.31640625 C24.23462414 145.82475161 23.3202009 149.4212946 18.375 153.875 C16.60184662 155.27379289 14.81095406 156.65050386 13 158 C11.71733099 159.09039516 10.44562204 160.19387123 9.1875 161.3125 C8.54941406 161.86808594 7.91132812 162.42367187 7.25390625 162.99609375 C3.76452417 166.09843865 0.3479035 169.27863883 -3.0769043 172.4519043 C-7.19547952 176.2656204 -11.35090717 180.0352285 -15.53125 183.78125 C-18.24087459 186.21648223 -20.93332171 188.66995276 -23.625 191.125 C-36.6875 203 -36.6875 203 -38 203 C-37.41909479 195.55467139 -36.50646604 188.23536319 -35.25 180.875 C-35.0737207 179.83279297 -34.89744141 178.79058594 -34.71582031 177.71679688 C-32.94246994 167.39855926 -30.88833889 157.14332156 -28.79199219 146.88671875 C-27.31570063 139.64178607 -25.85980963 132.39276012 -24.40588379 125.14331055 C-23.89058315 122.5775897 -23.37265385 120.01240996 -22.85449219 117.44726562 C-21.29512888 109.69752855 -19.78969696 101.94639443 -18.4453125 94.15625 C-17.60011444 89.26065998 -16.6861036 84.39230013 -15.62109375 79.5390625 C-13.206118 68.53104683 -11.17468715 57.44420773 -9.0625 46.375 C-8.41115155 42.96558654 -7.75932015 39.55626721 -7.10655212 36.14712524 C-6.70378852 34.04326881 -6.30181154 31.93926152 -5.90089417 29.83505249 C-3.9958842 19.8766768 -1.9886933 9.94346648 0 0 Z " fill="#FBFAFB" transform="translate(1080,401)"/>
<path d="M0 0 C1.35568336 0.00333092 1.35568336 0.00333092 2.73875427 0.00672913 C3.75973709 0.00680466 4.78071991 0.00688019 5.8326416 0.00695801 C6.94304306 0.01211929 8.05344452 0.01728058 9.19749451 0.02259827 C10.89336952 0.02472069 10.89336952 0.02472069 12.62350464 0.02688599 C16.25105891 0.03250433 19.8785525 0.04505994 23.50608826 0.05775452 C25.95856133 0.06276715 28.41103536 0.06733047 30.86351013 0.07142639 C36.89022371 0.08247971 42.91690165 0.09923568 48.94358826 0.12025452 C47.16853251 12.71202597 45.32767711 25.39557622 42.00608826 37.68275452 C40.0490518 45.09370266 38.83384157 52.55331479 37.63108826 60.12025452 C35.45227913 73.77642607 32.63925001 87.22287202 29.59202576 100.71009827 C27.24634291 111.1300505 25.02518587 121.48454467 23.94358826 132.12025452 C23.61358826 132.78025452 23.28358826 133.44025452 22.94358826 134.12025452 C43.40358826 134.12025452 63.86358826 134.12025452 84.94358826 134.12025452 C85.27358826 130.16025452 85.60358826 126.20025452 85.94358826 122.12025452 C86.54831441 118.75431651 87.19714522 115.45210446 87.94358826 112.12025452 C88.38139925 110.08860075 88.81879165 108.05685675 89.25584412 106.02503967 C89.49146561 104.94161285 89.7270871 103.85818604 89.96984863 102.7419281 C93.38163341 87.03578245 96.4928955 71.28202128 99.50608826 55.49525452 C99.9660973 53.09676379 100.42638362 50.69832624 100.88694763 48.29994202 C101.34466966 45.91453297 101.80235224 43.52911636 102.25999451 41.14369202 C102.48176361 39.98794678 102.70353271 38.83220154 102.93202209 37.64143372 C104.08465533 31.62736097 105.22884501 25.61183794 106.36106873 19.59388733 C106.58946945 18.38729462 106.81787018 17.1807019 107.05319214 15.93754578 C107.49018334 13.62855541 107.92411288 11.31898297 108.35461426 9.0087738 C108.54889511 7.98546967 108.74317596 6.96216553 108.94334412 5.90785217 C109.11297165 5.00443085 109.28259918 4.10100952 109.45736694 3.17021179 C109.94358826 1.12025452 109.94358826 1.12025452 110.94358826 0.12025452 C112.53969807 0.02691746 114.13992254 0.00280079 115.73875427 0.00672913 C116.75973709 0.00680466 117.78071991 0.00688019 118.8326416 0.00695801 C119.94304306 0.01211929 121.05344452 0.01728058 122.19749451 0.02259827 C123.89336952 0.02472069 123.89336952 0.02472069 125.62350464 0.02688599 C129.25105891 0.03250433 132.8785525 0.04505994 136.50608826 0.05775452 C138.95856133 0.06276715 141.41103536 0.06733047 143.86351013 0.07142639 C149.89022371 0.08247971 155.91690165 0.09923568 161.94358826 0.12025452 C161.44067278 5.90262205 160.78146514 11.51945567 159.51780701 17.19447327 C159.21845496 18.56664533 158.91939988 19.93888221 158.62059021 21.31117249 C158.38017502 22.40193085 158.38017502 22.40193085 158.13490295 23.51472473 C153.53663772 44.44297314 149.57451144 65.49313989 145.61789417 86.54968166 C143.21300194 99.34473993 140.77466397 112.12398619 138.0692749 124.8591156 C134.12947301 143.56465372 130.59125276 162.35606733 126.94358826 181.12025452 C111.19253744 181.37766272 95.44205785 181.5714058 79.68942356 181.69018841 C72.37442112 181.74681786 65.0607283 181.82396182 57.74656677 181.9500885 C51.36850377 182.06002013 44.99138933 182.13076127 38.61240524 182.15522796 C35.23676201 182.16952367 31.86383129 182.20289876 28.48906136 182.28328514 C6.24278549 182.75502813 6.24278549 182.75502813 1.35395813 178.73002625 C-0.95359693 175.94041295 -2.49818284 173.37091324 -4.05641174 170.12025452 C-5.07752491 168.83622408 -6.13201971 167.57653076 -7.24391174 166.37025452 C-7.94387268 165.55995789 -7.94387268 165.55995789 -8.65797424 164.73329163 C-9.11945862 164.20098938 -9.58094299 163.66868713 -10.05641174 163.12025452 C-15.15889889 157.2008788 -20.1499831 151.20383036 -25.05641174 145.12025452 C-25.79891174 144.33779358 -26.54141174 143.55533264 -27.30641174 142.74916077 C-30.13065085 138.506498 -29.25030965 134.37424531 -28.49317932 129.47767639 C-28.10102234 127.55278381 -28.10102234 127.55278381 -27.70094299 125.58900452 C-27.55928711 124.88529724 -27.41763123 124.18158997 -27.27168274 123.45655823 C-26.81072724 121.1763842 -26.33995414 118.8983641 -25.86891174 116.62025452 C-25.54349483 115.02008874 -25.21854791 113.41982732 -24.89405823 111.81947327 C-23.21417111 103.56821215 -21.46080324 95.33694207 -19.61891174 87.12025452 C-16.14303376 71.56379554 -13.43494709 55.84434876 -10.5459137 40.17106628 C-9.05973472 32.11730868 -7.5516558 24.06794784 -6.00779724 16.02503967 C-5.74990426 14.67896903 -5.49347947 13.33261622 -5.23857117 11.98597717 C-4.89125901 10.15241357 -4.53845691 8.31989233 -4.18531799 6.48744202 C-3.99010559 5.46763245 -3.79489319 4.44782288 -3.59376526 3.39710999 C-2.83109644 0.1655564 -2.83109644 0.1655564 0 0 Z " fill="#FAFAFB" transform="translate(896.0564117431641,400.87974548339844)"/>
<path d="M0 0 C0.54533386 0.26828613 1.09066772 0.53657227 1.65252686 0.81298828 C-0.62238295 15.30821912 -3.23410659 29.72411574 -6.03497314 44.12548828 C-6.19104034 44.93119263 -6.34710754 45.73689697 -6.50790405 46.5670166 C-6.95571617 48.87478814 -7.40674176 51.18190327 -7.85919189 53.48876953 C-7.99447296 54.1846669 -8.12975403 54.88056427 -8.26913452 55.59754944 C-8.82569361 58.41277672 -9.43861317 61.08640836 -10.34747314 63.81298828 C19.35252686 63.81298828 49.05252686 63.81298828 79.65252686 63.81298828 C79.65252686 65.81298828 79.65252686 65.81298828 78.32440186 67.15283203 C77.69018311 67.68005859 77.05596436 68.20728516 76.40252686 68.75048828 C72.81181152 71.80291296 69.30475944 74.93143793 65.84002686 78.12548828 C64.8075613 79.07480115 63.77500857 80.02401921 62.74237061 80.97314453 C62.2291626 81.44510254 61.71595459 81.91706055 61.18719482 82.40332031 C44.92852469 97.33770806 44.92852469 97.33770806 37.21502686 103.62548828 C34.62020714 105.55270221 34.62020714 105.55270221 33.65252686 107.81298828 C16.16252686 107.81298828 -1.32747314 107.81298828 -19.34747314 107.81298828 C-19.34747314 110.12298828 -19.34747314 112.43298828 -19.34747314 114.81298828 C-19.56854096 116.50754653 -19.84062574 118.19646019 -20.17022705 119.87329102 C-20.44177612 121.28072823 -20.44177612 121.28072823 -20.71881104 122.71659851 C-21.01839722 124.21644035 -21.01839722 124.21644035 -21.32403564 125.74658203 C-21.53004395 126.80573318 -21.73605225 127.86488434 -21.94830322 128.95613098 C-22.61715257 132.38876095 -23.29483226 135.81958417 -23.97247314 139.25048828 C-24.4320368 141.60223142 -24.89085594 143.95412016 -25.34893799 146.30615234 C-26.03452436 149.82606759 -26.72050568 153.3458986 -27.40890503 156.86526489 C-30.14008714 170.83230551 -32.74132187 184.82207094 -35.34747314 198.81298828 C-23.79747314 198.81298828 -12.24747314 198.81298828 -0.34747314 198.81298828 C-0.34747314 199.47298828 -0.34747314 200.13298828 -0.34747314 200.81298828 C-2.37481689 202.33642578 -2.37481689 202.33642578 -5.28497314 204.18798828 C-10.44685182 207.54442113 -15.51373002 210.99967407 -20.53497314 214.56298828 C-21.25854004 215.07555176 -21.98210693 215.58811523 -22.7276001 216.11621094 C-24.20819713 217.16565316 -25.68842079 218.21562233 -27.16827393 219.26611328 C-45.97940211 232.61893741 -64.87317224 245.85413645 -83.99078369 258.76538086 C-88.69724507 261.9553009 -93.28778537 265.22426859 -97.75592041 268.7421875 C-99.34747314 269.81298828 -99.34747314 269.81298828 -101.34747314 269.81298828 C-101.25744289 268.20796618 -101.14934662 266.60395955 -101.03497314 265.00048828 C-100.97696533 264.10716797 -100.91895752 263.21384766 -100.85919189 262.29345703 C-100.42590858 259.34646899 -99.79126305 256.77893285 -98.95684814 253.93408203 C-97.09301124 247.32705141 -96.15889098 240.63517969 -95.21316528 233.85275269 C-92.46445701 214.22722465 -92.46445701 214.22722465 -90.28497314 205.75048828 C-87.83140944 196.1637817 -86.37520382 186.42886045 -84.80889893 176.66455078 C-84.14185694 172.54230189 -83.4407712 168.42658131 -82.72247314 164.31298828 C-82.50333252 163.04455078 -82.28419189 161.77611328 -82.05841064 160.46923828 C-81.55725063 157.89184392 -81.00398746 155.40922015 -80.34356689 152.87548828 C-79.2777958 148.72078741 -78.642955 144.55509563 -78.03497314 140.31298828 C-76.29666636 128.70740723 -73.80142038 117.2868497 -71.34747314 105.81298828 C-83.88747314 105.81298828 -96.42747314 105.81298828 -109.34747314 105.81298828 C-102.51838224 97.84571555 -102.51838224 97.84571555 -98.97247314 94.31298828 C-98.28411377 93.62205078 -97.59575439 92.93111328 -96.88653564 92.21923828 C-94.84840223 90.28771492 -92.78073267 88.45361847 -90.65216064 86.62548828 C-85.81369026 82.42047924 -81.34194843 77.87960603 -76.84747314 73.31298828 C-75.23542901 71.67506864 -73.62087454 70.03961562 -72.00372314 68.40673828 C-71.30053955 67.69195312 -70.59735596 66.97716797 -69.87286377 66.24072266 C-67.91513062 64.35869457 -65.94146411 62.60609724 -63.87579346 60.85009766 C-58.31866904 56.02094556 -53.22353778 50.73477577 -48.06772614 45.48614502 C-45.56304007 42.93898187 -43.04865985 40.40147785 -40.53489304 37.86328125 C-35.8693892 33.1521867 -31.20807426 28.43711028 -26.56280518 23.70605469 C-23.31589328 20.39992614 -20.05704808 17.1059918 -16.78984833 13.81991577 C-15.54932394 12.5676284 -14.31335378 11.31081274 -13.08203888 10.04946899 C-11.36832473 8.29496651 -9.63985978 6.55640956 -7.90704346 4.82080078 C-7.40100082 4.29521072 -6.89495819 3.76962067 -6.37358093 3.22810364 C-2.87625108 -0.22913687 -2.87625108 -0.22913687 0 0 Z " fill="#FBFAFB" transform="translate(608.3474731445313,340.18701171875)"/>
<path d="M0 0 C17.49 0 34.98 0 53 0 C52.31768199 6.14086212 51.62827067 10.34129507 50 16 C49.42436317 19.36251797 48.99724401 22.74175671 48.5625 26.125 C47.61357045 33.16740849 46.40425212 39.99797337 44.68359375 46.8984375 C43.66331064 51.52760773 43.1433736 56.19768984 42.625 60.90625 C42.17927469 64.26257889 41.43984474 67.50765682 40.65625 70.80078125 C38.82061574 78.56324189 37.37506292 86.38177503 35.94775391 94.22729492 C35.50370609 96.66713672 35.0549684 99.10607925 34.60546875 101.54492188 C32.62307207 112.34498964 30.77316632 123.163713 29 134 C30.65 134.33 32.3 134.66 34 135 C34 135.99 34 136.98 34 138 C32.989375 138.350625 31.97875 138.70125 30.9375 139.0625 C27.10435491 140.70197772 24.7207875 143.00419136 21.90820312 146.02929688 C20.10358675 147.89302044 18.24300887 149.5830196 16.2734375 151.26953125 C12.10042501 154.88802721 8.07106137 158.63858644 4.0625 162.4375 C2.56772903 163.84898025 1.07293675 165.26043793 -0.421875 166.671875 C-1.17919922 167.38794922 -1.93652344 168.10402344 -2.71679688 168.84179688 C-6.36964924 172.29466416 -10.02798289 175.74169869 -13.6875 179.1875 C-14.38343262 179.84290771 -15.07936523 180.49831543 -15.79638672 181.17358398 C-22.50067538 187.48170301 -29.24406317 193.74727875 -36 200 C-36.91907617 197.01777627 -37.01560732 194.96012301 -36.3984375 191.91040039 C-36.16150429 190.70626999 -36.16150429 190.70626999 -35.91978455 189.47781372 C-35.74000565 188.60986176 -35.56022675 187.74190979 -35.375 186.84765625 C-35.19300552 185.93378143 -35.01101105 185.01990662 -34.82350159 184.07833862 C-34.42955233 182.10501126 -34.03170402 180.13245916 -33.63040161 178.16061401 C-32.77561648 173.95976529 -31.93973473 169.75521951 -31.10243225 165.55085754 C-30.67614121 163.41181202 -30.24883836 161.2729679 -29.82054138 159.13432312 C-28.00787168 150.07970638 -26.26623642 141.01315803 -24.5625 131.9375 C-24.28570207 130.46654191 -24.0088457 128.99559481 -23.73193359 127.5246582 C-23.2978922 125.21824638 -22.86406389 122.91179527 -22.43078613 120.60523987 C-21.18045709 113.95042646 -19.92087326 107.29738359 -18.66015625 100.64453125 C-12.31079372 67.11975397 -6.10369993 33.57034964 0 0 Z " fill="#FAFAFA" transform="translate(451,401)"/>
<path d="M0 0 C28.05 0 56.1 0 85 0 C78.66691617 37.99850299 78.66691617 37.99850299 77.61328125 43.41796875 C76.92909235 46.95812174 76.92909235 46.95812174 76.85546875 50.42578125 C75.7364231 63.36194902 65.02853763 71.03695517 56.01538086 79.38623047 C54 81 54 81 52 81 C51.5978125 81.8971875 51.5978125 81.8971875 51.1875 82.8125 C49.93297467 85.12346772 49.08648887 86.402623 47 88 C44.24751282 88.36076355 44.24751282 88.36076355 40.8762207 88.34057617 C39.61513992 88.34034958 38.35405914 88.34012299 37.05476379 88.33988953 C35.67843268 88.32456963 34.30210518 88.30892164 32.92578125 88.29296875 C31.51759798 88.2873726 30.10940886 88.28310259 28.70121765 88.28010559 C24.99718056 88.26865818 21.2934971 88.23919235 17.58959961 88.20599365 C13.80913069 88.17529026 10.02860457 88.16159971 6.24804688 88.14648438 C-1.16812986 88.11432216 -8.58401536 88.06312755 -16 88 C-13.80256179 72.3019391 -10.9761791 56.75461859 -8 41.1875 C-7.55695881 38.85227667 -7.11424901 36.51699044 -6.671875 34.18164062 C-4.50627173 22.77515013 -2.27709528 11.38547641 0 0 Z " fill="#050505" transform="translate(278,447)"/>
<path d="M0 0 C24.75 0 49.5 0 75 0 C73.87509883 11.24901167 73.87509883 11.24901167 73.16796875 15.06323242 C72.93267456 16.34957832 72.93267456 16.34957832 72.69262695 17.66191101 C72.52593506 18.55078506 72.35924316 19.43965912 72.1875 20.35546875 C72.01371826 21.30134354 71.83993652 22.24721832 71.66088867 23.22175598 C71.11105905 26.21105333 70.55582937 29.19931299 70 32.1875 C69.44510951 35.18656245 68.8913902 38.18583454 68.33911133 41.18537903 C67.99692416 43.04221438 67.6531031 44.89874964 67.30737305 46.75492859 C66.61697937 50.48766859 65.97919062 54.17304024 65.52563477 57.94458008 C64.80921516 62.1089978 62.99187812 63.64308511 59.9375 66.5 C59.19040771 67.210354 59.19040771 67.210354 58.42822266 67.93505859 C55.068712 71.10438788 51.61952525 74.17838112 48.0643158 77.1264801 C45.93342522 78.97652535 45.93342522 78.97652535 44.09132385 81.2674408 C40.13821852 85.86451268 37.30359716 88.55251037 31.11303711 89.02172852 C28.91729028 89.02032094 26.72118071 88.97047867 24.52734375 88.87890625 C23.3636879 88.86617172 22.20003204 88.85343719 21.00111389 88.84031677 C17.31105669 88.79022718 13.62605165 88.67736839 9.9375 88.5625 C7.4252016 88.51732235 4.91282555 88.47626356 2.40039062 88.43945312 C-3.73477529 88.34061595 -9.86702673 88.19032621 -16 88 C-15.39008555 83.93027594 -14.77368134 79.86155862 -14.15625 75.79296875 C-13.98641602 74.659198 -13.81658203 73.52542725 -13.64160156 72.3572998 C-12.46476819 64.62951898 -11.07484112 56.96873324 -9.5 49.3125 C-9.16716507 47.69428596 -9.16716507 47.69428596 -8.8276062 46.04338074 C-8.62926178 45.08031509 -8.43091736 44.11724945 -8.2265625 43.125 C-6.80633044 36.15497223 -5.59402016 29.15314867 -4.43164062 22.13598633 C-3.17981319 14.68274489 -1.58970518 7.41862417 0 0 Z " fill="#050404" transform="translate(733,447)"/>
<path d="M0 0 C14.19 0 28.38 0 43 0 C42.22163594 4.67018436 41.88459345 6.69157338 39.80078125 10.5234375 C36.56205657 16.73983096 33.88682305 23.16027964 31.1875 29.625 C29.475625 33.70875 27.76375 37.7925 26 42 C12.14 42 -1.72 42 -16 42 C-15.13689799 37.68448993 -14.016726 34.2462513 -12.3828125 30.1953125 C-12.12498993 29.5531076 -11.86716736 28.91090271 -11.60153198 28.24923706 C-10.78005811 26.20617154 -9.95253752 24.16561585 -9.125 22.125 C-8.57644359 20.76187134 -8.02826292 19.39859141 -7.48046875 18.03515625 C-5.04816651 11.99483066 -2.56542782 5.98599826 0 0 Z " fill="#01E8F6" transform="translate(475,339)"/>
<path d="M0 0 C13.2 0 26.4 0 40 0 C39.21625 5.094375 38.4325 10.18875 37.625 15.4375 C37.38217285 17.02618896 37.1393457 18.61487793 36.88916016 20.25170898 C36.69112793 21.52860596 36.4930957 22.80550293 36.2890625 24.12109375 C35.99056396 26.06133423 35.99056396 26.06133423 35.68603516 28.04077148 C34.93284641 32.38755508 33.95700073 36.69349671 33 41 C19.8 41 6.6 41 -7 41 C-6.33551122 33.6906234 -5.94532565 29.46785282 -4 23 C-3.20993972 19.03458816 -2.54348713 15.04997203 -1.875 11.0625 C-1.25625 7.411875 -0.6375 3.76125 0 0 Z " fill="#F40728" transform="translate(1462,541)"/>
<path d="M0 0 C54.12 0 108.24 0 164 0 C163.67 0.99 163.34 1.98 163 3 C163 2.34 163 1.68 163 1 C162.401875 1.309375 161.80375 1.61875 161.1875 1.9375 C157.25766563 3.84627669 154.25763086 4.12221052 149.93360901 4.11352539 C148.66472839 4.1134549 147.39584778 4.1133844 146.08851624 4.11331177 C144.6795346 4.10817768 143.27055328 4.10295623 141.86157227 4.09765625 C140.37995453 4.09573737 138.89833614 4.09427343 137.41671753 4.0932312 C134.22462835 4.09006802 131.03256556 4.0837961 127.84048653 4.07516479 C122.79420798 4.06165876 117.74793826 4.05575165 112.7016449 4.05102539 C101.07735431 4.03897222 89.45308664 4.01692216 77.82881165 3.99479675 C67.17864996 3.97462565 56.52849596 3.95655286 45.8783192 3.94658184 C40.86084105 3.94159519 35.84340315 3.93172888 30.82594121 3.91815186 C27.70535104 3.91069759 24.58476643 3.90737763 21.46416855 3.9051857 C20.01615378 3.90331205 18.56814006 3.89970784 17.12013435 3.89425278 C15.14455923 3.88704417 13.16896291 3.88658412 11.19337463 3.88647461 C10.08743234 3.884254 8.98149004 3.88203339 7.84203434 3.87974548 C3.90943624 4.04614484 1.81918368 4.18081632 -1 7 C-0.67 4.69 -0.34 2.38 0 0 Z " fill="#B5B4B4" transform="translate(1080,401)"/>
<path d="M0 0 C0 3 0 3 -1.45367432 4.81443787 C-2.13444031 5.48854202 -2.8152063 6.16264618 -3.51660156 6.85717773 C-4.28450012 7.6248497 -5.05239868 8.39252167 -5.84356689 9.18345642 C-6.68409607 10.00850174 -7.52462524 10.83354706 -8.390625 11.68359375 C-9.24678406 12.53550797 -10.10294312 13.38742218 -10.98504639 14.26515198 C-13.73309204 16.99636502 -16.49135212 19.71700006 -19.25 22.4375 C-21.09573553 24.26819141 -22.94079634 26.09956334 -24.78515625 27.93164062 C-28.86333512 31.98029131 -32.94798229 36.02228564 -37.03839111 40.05857849 C-39.03252743 42.03219269 -41.01778917 44.01441477 -43 46 C-43 43 -43 43 -41.36755371 41.00679016 C-40.60366333 40.24956161 -39.83977295 39.49233307 -39.05273438 38.7121582 C-38.19184204 37.85149246 -37.33094971 36.99082672 -36.44396973 36.1040802 C-35.50339722 35.17899155 -34.56282471 34.25390289 -33.59375 33.30078125 C-32.62902751 32.34165354 -31.66496495 31.38186163 -30.70153809 30.4214325 C-28.16319954 27.89455206 -25.61598117 25.37680924 -23.0668335 22.86083984 C-20.46753702 20.29222339 -17.87670527 17.71510059 -15.28515625 15.13867188 C-10.19836885 10.08406567 -5.10217428 5.03907909 0 0 Z " fill="#E8E7E9" transform="translate(592,354)"/>
<path d="M0 0 C0.66 0.66 1.32 1.32 2 2 C1.38125 2.2475 0.7625 2.495 0.125 2.75 C-2.42873276 4.25219574 -2.71046039 5.39215782 -4 8 C-8.99646347 14.11811853 -15.57094184 18.52407344 -22 23 C-22.66 22.67 -23.32 22.34 -24 22 C-19.86760018 17.75137644 -15.62026906 13.71528115 -11.1328125 9.84375 C-8.73567047 7.77149536 -6.36665177 5.66948778 -4 3.5625 C-3.236875 2.88316406 -2.47375 2.20382812 -1.6875 1.50390625 C-1.130625 1.00761719 -0.57375 0.51132812 0 0 Z " fill="#0D0D0D" transform="translate(1210,553)"/>
<path d="M0 0 C18.81 0.33 37.62 0.66 57 1 C57 1.33 57 1.66 57 2 C56.35742249 2.01030746 55.71484497 2.02061493 55.05279541 2.03123474 C48.36940441 2.13935168 41.68614681 2.25394565 35.00292969 2.37231445 C32.50816639 2.4156466 30.01337377 2.45732291 27.51855469 2.49731445 C23.93415484 2.55505836 20.3499024 2.61874135 16.765625 2.68359375 C15.64883362 2.70030624 14.53204224 2.71701874 13.38140869 2.73423767 C12.34063171 2.75418289 11.29985474 2.77412811 10.22753906 2.79467773 C9.31264709 2.81022202 8.39775513 2.8257663 7.45513916 2.84178162 C3.71788075 3.08262458 1.69076554 3.30923446 -1 6 C-0.67 4.02 -0.34 2.04 0 0 Z " fill="#F2F2F2" transform="translate(1080,402)"/>
<path d="M0 0 C0.33 0.99 0.66 1.98 1 3 C0.33097656 3.59683594 -0.33804688 4.19367187 -1.02734375 4.80859375 C-10.33929267 13.22059593 -19.17938581 22.0772226 -28 31 C-28.66 30.67 -29.32 30.34 -30 30 C-20.1 20.1 -10.2 10.2 0 0 Z " fill="#2B2B2B" transform="translate(679,639)"/>
<path d="M0 0 C0.66 0.33 1.32 0.66 2 1 C-0.2234498 3.42198014 -2.45475769 5.83658623 -4.6875 8.25 C-5.31333984 8.93191406 -5.93917969 9.61382812 -6.58398438 10.31640625 C-9.86664478 13.85686722 -13.10627632 17.1113484 -17 20 C-17.66 19.34 -18.32 18.68 -19 18 C-14.41731215 13.30762016 -9.75053386 8.80319423 -4.76171875 4.54296875 C-3.10184189 3.08919634 -1.54066019 1.57858414 0 0 Z " fill="#171717" transform="translate(1397,461)"/>
<path d="M0 0 C0 3.76062006 -0.84492063 4.25412503 -3.39453125 6.90625 C-4.10287109 7.65003906 -4.81121094 8.39382813 -5.54101562 9.16015625 C-6.29060547 9.93230469 -7.04019531 10.70445312 -7.8125 11.5 C-8.91948242 12.65822266 -8.91948242 12.65822266 -10.04882812 13.83984375 C-13.00222006 16.92420058 -15.97188696 19.98886266 -19 23 C-19.66 22.67 -20.32 22.34 -21 22 C-20.43152344 21.443125 -19.86304688 20.88625 -19.27734375 20.3125 C-14.85890196 15.94569275 -10.61905057 11.5111312 -6.57421875 6.796875 C-4.48662489 4.41401353 -2.27363401 2.20473601 0 0 Z " fill="#D1D0D2" transform="translate(286,285)"/>
<path d="M0 0 C0 0.66 0 1.32 0 2 C-1.96147874 3.38938077 -3.96166576 4.7260411 -6 6 C-6.33 5.01 -6.66 4.02 -7 3 C-10.3 3 -13.6 3 -17 3 C-17 2.34 -17 1.68 -17 1 C-14.72926348 0.83201949 -12.45840707 0.66565887 -10.1875 0.5 C-8.29064453 0.36078125 -8.29064453 0.36078125 -6.35546875 0.21875 C-4.24021483 0.08085219 -2.11974408 0 0 0 Z " fill="#EFEFEF" transform="translate(688,404)"/>
<path d="M0 0 C-1.56204726 4.21752761 -4.45134252 6.37399346 -8 9 C-10.1953125 9.64453125 -10.1953125 9.64453125 -12 10 C-11.06409496 8.8944811 -10.12620142 7.79064547 -9.1875 6.6875 C-8.66542969 6.07261719 -8.14335938 5.45773437 -7.60546875 4.82421875 C-7.07566406 4.22222656 -6.54585937 3.62023437 -6 3 C-5.50113281 2.42894531 -5.00226562 1.85789062 -4.48828125 1.26953125 C-3 0 -3 0 0 0 Z " fill="#1A1A1B" transform="translate(809,562)"/>
<path d="M0 0 C0.66 1.32 1.32 2.64 2 4 C2.99 4 3.98 4 5 4 C5.33 4.99 5.66 5.98 6 7 C1.25 11 1.25 11 -1 11 C-0.67 7.37 -0.34 3.74 0 0 Z " fill="#C9C8C9" transform="translate(508,599)"/>
<path d="M0 0 C0.66 0.33 1.32 0.66 2 1 C1.00795408 2.33926199 0.00573778 3.67098936 -1 5 C-1.639375 5.86625 -2.27875 6.7325 -2.9375 7.625 C-4.90645013 9.89227591 -6.24479736 10.91759896 -9 12 C-9 9 -9 9 -7.03125 6.73828125 C-5.77828125 5.53751953 -5.77828125 5.53751953 -4.5 4.3125 C-3.6646875 3.50425781 -2.829375 2.69601562 -1.96875 1.86328125 C-1.3190625 1.24839844 -0.669375 0.63351562 0 0 Z " fill="#1D1D1E" transform="translate(386,538)"/>
<path d="M0 0 C1.67542976 0.28604898 3.34385343 0.61781233 5 1 C3.54744301 4.82946843 1.57104439 6.12050295 -2 8 C-1.125 1.125 -1.125 1.125 0 0 Z " fill="#EEEEEE" transform="translate(1231,602)"/>
<path d="M0 0 C0.33 0.99 0.66 1.98 1 3 C-4.94 8.445 -4.94 8.445 -11 14 C-11.66 13.67 -12.32 13.34 -13 13 C-8.71 8.71 -4.42 4.42 0 0 Z " fill="#161616" transform="translate(679,639)"/>
<path d="M0 0 C0.33 0.99 0.66 1.98 1 3 C-0.59576199 4.50893816 -2.20189911 6.00691076 -3.8125 7.5 C-4.70582031 8.3353125 -5.59914063 9.170625 -6.51953125 10.03125 C-9 12 -9 12 -12 12 C-8.04 8.04 -4.08 4.08 0 0 Z " fill="#EDEDED" transform="translate(299,272)"/>
<path d="M0 0 C0.33 1.32 0.66 2.64 1 4 C1.99 4.33 2.98 4.66 4 5 C2.63016497 8.16115776 2.0109362 8.9927092 -1 11 C-0.67 7.37 -0.34 3.74 0 0 Z " fill="#CDCDCD" transform="translate(1155,593)"/>
<path d="M0 0 C0.33 0 0.66 0 1 0 C1.33 3.63 1.66 7.26 2 11 C1.01 11.33 0.02 11.66 -1 12 C-1.33 12.99 -1.66 13.98 -2 15 C-1.47462276 9.9697924 -0.89405214 4.98114761 0 0 Z " fill="#C1C0C1" transform="translate(1171,509)"/>
<path d="M0 0 C1.60080151 4.00200378 0.29279692 7.04556236 -1 11 C-1.66 10.67 -2.32 10.34 -3 10 C-2.88637738 8.5199159 -2.75877092 7.04089926 -2.625 5.5625 C-2.55539062 4.73878906 -2.48578125 3.91507813 -2.4140625 3.06640625 C-2.27742187 2.38449219 -2.14078125 1.70257812 -2 1 C-1.34 0.67 -0.68 0.34 0 0 Z " fill="#171717" transform="translate(577,522)"/>
<path d="M0 0 C0.66 0.99 1.32 1.98 2 3 C5.34613512 3.58687784 5.34613512 3.58687784 9.125 3.6875 C11.04699219 3.78611328 11.04699219 3.78611328 13.0078125 3.88671875 C13.99523437 3.92410156 14.98265625 3.96148437 16 4 C16 4.33 16 4.66 16 5 C10.39 5 4.78 5 -1 5 C-0.67 3.35 -0.34 1.7 0 0 Z " fill="#03DCEC" transform="translate(460,376)"/>
<path d="M0 0 C1.5625 1.8125 1.5625 1.8125 3 4 C2.67 4.99 2.34 5.98 2 7 C1.34 7 0.68 7 0 7 C0.226875 7.5775 0.45375 8.155 0.6875 8.75 C1 11 1 11 -0.48046875 13.140625 C-0.98191406 13.75421875 -1.48335938 14.3678125 -2 15 C-1.85816304 13.24967156 -1.71136571 11.49974466 -1.5625 9.75 C-1.48128906 8.77546875 -1.40007812 7.8009375 -1.31640625 6.796875 C-1.04925416 4.43538247 -0.64628032 2.28098935 0 0 Z " fill="#434343" transform="translate(293,359)"/>
<path d="M0 0 C0.66 0.66 1.32 1.32 2 2 C-0.31 4.31 -2.62 6.62 -5 9 C-5.66 8.34 -6.32 7.68 -7 7 C-4.69 4.69 -2.38 2.38 0 0 Z " fill="#0D0D0D" transform="translate(1337,456)"/>
<path d="M0 0 C0.66 0.33 1.32 0.66 2 1 C-0.97 4.3 -3.94 7.6 -7 11 C-7.66 10.34 -8.32 9.68 -9 9 C-6.03 6.03 -3.06 3.06 0 0 Z " fill="#ECECEC" transform="translate(557,389)"/>
<path d="M0 0 C0.33 0 0.66 0 1 0 C2.28238342 7.40932642 2.28238342 7.40932642 1 11 C0.67 11.99 0.34 12.98 0 14 C-0.66 14 -1.32 14 -2 14 C-1.34 9.38 -0.68 4.76 0 0 Z " fill="#474847" transform="translate(1304,479)"/>
<path d="M0 0 C0.99 0.33 1.98 0.66 3 1 C2.01 1.33 1.02 1.66 0 2 C-0.33 2.99 -0.66 3.98 -1 5 C-2.62332967 6.38576923 -4.28724465 7.72641268 -6 9 C-6.66 8.67 -7.32 8.34 -8 8 C-5.36 5.36 -2.72 2.72 0 0 Z " fill="#EEEEEF" transform="translate(1323,473)"/>
<path d="M0 0 C0.33 0 0.66 0 1 0 C2.43680971 6.13909603 1.32637691 10.20377279 -1 16 C-2.26823485 12.34606463 -1.75715321 9.50929974 -1.0625 5.75 C-0.86785156 4.67234375 -0.67320313 3.5946875 -0.47265625 2.484375 C-0.31667969 1.66453125 -0.16070313 0.8446875 0 0 Z " fill="#494948" transform="translate(1319,404)"/>
<path d="M0 0 C0.33 0 0.66 0 1 0 C1.08107583 1.93681161 1.13922475 3.8745934 1.1875 5.8125 C1.23970703 7.43091797 1.23970703 7.43091797 1.29296875 9.08203125 C1 12 1 12 -0.51171875 13.88671875 C-1.00285156 14.25410156 -1.49398438 14.62148438 -2 15 C-1.03644647 4.44191344 -1.03644647 4.44191344 0 0 Z " fill="#3E0207" transform="translate(1500,549)"/>
<path d="M0 0 C0.33 0 0.66 0 1 0 C2.1100616 4.66225873 1.9453329 7.5974045 0 12 C-0.99 12.495 -0.99 12.495 -2 13 C-1.85769192 11.58297487 -1.71099254 10.1663904 -1.5625 8.75 C-1.48128906 7.96109375 -1.40007812 7.1721875 -1.31640625 6.359375 C-1.02365007 4.17635361 -0.57935581 2.1226818 0 0 Z " fill="#494949" transform="translate(1108,516)"/>
<path d="M0 0 C0.33 0 0.66 0 1 0 C1.83705954 3.99928449 2.24068023 7.07117928 1 11 C0.02615879 12.35255724 -0.97103053 13.68889374 -2 15 C-1.03644647 4.44191344 -1.03644647 4.44191344 0 0 Z " fill="#A9A8AA" transform="translate(528,492)"/>
<path d="M0 0 C0.66 0.33 1.32 0.66 2 1 C-0.31 3.64 -2.62 6.28 -5 9 C-5.99 8.67 -6.98 8.34 -8 8 C-5.36 5.36 -2.72 2.72 0 0 Z " fill="#242424" transform="translate(1397,461)"/>
<path d="M0 0 C0.33 0 0.66 0 1 0 C1.08082094 1.95766281 1.13910778 3.91626728 1.1875 5.875 C1.23970703 7.51082031 1.23970703 7.51082031 1.29296875 9.1796875 C1.19628906 10.11039062 1.09960938 11.04109375 1 12 C0.01 12.66 -0.98 13.32 -2 14 C-1.03644647 4.58997722 -1.03644647 4.58997722 0 0 Z " fill="#B6B6B7" transform="translate(882,459)"/>
<path d="M0 0 C0 0.99 0 1.98 0 3 C-2.5 5.1875 -2.5 5.1875 -5 7 C-5.66 6.34 -6.32 5.68 -7 5 C-4.69 3.35 -2.38 1.7 0 0 Z " fill="#141414" transform="translate(585,556)"/>
<path d="M0 0 C0.33 0 0.66 0 1 0 C2.6112798 5.71271928 1.08989546 9.68670645 -1 15 C-2.20220203 11.46905698 -1.79532349 8.87101018 -1.0625 5.25 C-0.86785156 4.26515625 -0.67320312 3.2803125 -0.47265625 2.265625 C-0.31667969 1.51796875 -0.16070312 0.7703125 0 0 Z " fill="#585858" transform="translate(297,337)"/>
<path d="M0 0 C2.12508244 3.18762365 2.5020163 5.26512223 3 9 C1.68 9 0.36 9 -1 9 C-0.67 6.03 -0.34 3.06 0 0 Z " fill="#2C2C2B" transform="translate(263,526)"/>
<path d="M0 0 C0.66 0.66 1.32 1.32 2 2 C1.67 2.66 1.34 3.32 1 4 C-1.64 4 -4.28 4 -7 4 C-4.61426621 2.10786631 -2.92824652 0.97608217 0 0 Z " fill="#00E2ED" transform="translate(500,377)"/>
<path d="M0 0 C0.66 0.33 1.32 0.66 2 1 C-0.65654657 4.73884332 -2.58110387 6.64978174 -7 8 C-6.02133662 6.85373678 -5.04205413 5.70800212 -4.0625 4.5625 C-3.51722656 3.92441406 -2.97195313 3.28632812 -2.41015625 2.62890625 C-1.63204305 1.73008851 -0.84063472 0.84063472 0 0 Z " fill="#1D1D1E" transform="translate(1193,568)"/>
<path d="M0 0 C1.125 1.6875 1.125 1.6875 2 4 C1.125 6.75 1.125 6.75 0 9 C-1.10844919 5.67465243 -0.84454356 3.37817425 0 0 Z " fill="#1D1D1D" transform="translate(1025,568)"/>
<path d="M0 0 C-2.475 1.485 -2.475 1.485 -5 3 C-5.99 2.01 -6.98 1.02 -8 0 C-4.94736336 -0.98120464 -3.05263664 -0.98120464 0 0 Z " fill="#ECECEC" transform="translate(607,541)"/>
<path d="M0 0 C0.66 0.33 1.32 0.66 2 1 C0.35 2.98 -1.3 4.96 -3 7 C-3.99 6.67 -4.98 6.34 -6 6 C-4.02 4.02 -2.04 2.04 0 0 Z " fill="#E9E8E9" transform="translate(1394,404)"/>
<path d="M0 0 C2.97 0.495 2.97 0.495 6 1 C5.67 1.66 5.34 2.32 5 3 C3.66923011 3.34342449 2.33568021 3.67619874 1 4 C0.34 4.66 -0.32 5.32 -1 6 C-0.67 4.02 -0.34 2.04 0 0 Z " fill="#DBDADB" transform="translate(1080,402)"/>
</svg>
